<svg xmlns="http://www.w3.org/2000/svg" style="display: none;">
    <symbol id="hammer" width="24" height="24" viewBox="0 0 24 24" stroke-width="2" stroke="rgb(0, 0, 0)" fill="none" stroke-linecap="round" stroke-linejoin="round">
        <path stroke="none" d="M0 0h24v24H0z" fill="none"/>
        <path d="M11.414 10l-7.383 7.418a2.091 2.091 0 0 0 0 2.967a2.11 2.11 0 0 0 2.976 0l7.407 -7.385"/>
        <path d="M18.121 15.293l2.586 -2.586a1 1 0 0 0 0 -1.414l-7.586 -7.586a1 1 0 0 0 -1.414 0l-2.586 2.586a1 1 0 0 0 0 1.414l7.586 7.586a1 1 0 0 0 1.414 0z"/>
    </symbol>
    <symbol id="check" width="16" height="16" viewBox="0 0 16 16" fill="#000000">
        <path d="M8 16A8 8 0 1 1 8 0a8 8 0 0 1 0 16Zm3.78-9.72a.751.751 0 0 0-.018-1.042.751.751 0 0 0-1.042-.018L6.75 9.19 5.28 7.72a.751.751 0 0 0-1.042.018.751.751 0 0 0-.018 1.042l2 2a.75.75 0 0 0 1.06 0Z" fill="#000000"/>
    </symbol>
    <svg id="x" width="16" height="16" viewBox="0 0 16 16" fill="#000000">
        <path d="M2.343 13.657A8 8 0 1 1 13.658 2.343 8 8 0 0 1 2.343 13.657ZM6.03 4.97a.751.751 0 0 0-1.042.018.751.751 0 0 0-.018 1.042L6.94 8 4.97 9.97a.749.749 0 0 0 .326 1.275.749.749 0 0 0 .734-.215L8 9.06l1.97 1.97a.749.749 0 0 0 1.275-.326.749.749 0 0 0-.215-.734L9.06 8l1.97-1.97a.749.749 0 0 0-.326-1.275.749.749 0 0 0-.734.215L8 6.94Z" fill="#000000"/>
    </svg>
</svg>